<svg width="487" height="487" viewBox="0 0 487 487" fill="none" xmlns="http://www.w3.org/2000/svg">
<g clip-path="url(#clip0)">
<path d="M146.069 320.369H414.169C444.569 320.369 469.369 295.569 469.369 265.169V152.369C469.369 152.269 469.369 152.069 469.369 151.969C469.369 151.669 469.369 151.469 469.369 151.169C469.369 150.969 469.369 150.769 469.269 150.569C469.269 150.369 469.169 150.069 469.169 149.869C469.169 149.669 469.069 149.469 469.069 149.269C468.969 149.069 468.969 148.869 468.869 148.569C468.769 148.369 468.769 148.169 468.669 147.969C468.569 147.769 468.569 147.569 468.469 147.369C468.369 147.169 468.269 146.969 468.169 146.669C468.069 146.469 467.969 146.269 467.869 146.169C467.769 145.969 467.669 145.769 467.569 145.569C467.469 145.369 467.369 145.269 467.269 145.069C467.169 144.869 466.969 144.669 466.869 144.469C466.769 144.269 466.669 144.169 466.469 143.969C466.369 143.769 466.169 143.669 466.069 143.469C465.969 143.269 465.769 143.169 465.669 142.969C465.569 142.769 465.369 142.669 465.269 142.569C465.069 142.369 464.969 142.269 464.769 142.069C464.569 141.969 464.469 141.769 464.269 141.669C464.069 141.569 463.869 141.369 463.669 141.269C463.469 141.169 463.369 141.069 463.169 140.969C462.969 140.869 462.769 140.769 462.569 140.569C462.369 140.469 462.169 140.369 461.969 140.269C461.769 140.169 461.569 140.069 461.369 139.969C461.169 139.869 460.969 139.769 460.769 139.669C460.569 139.569 460.369 139.569 460.169 139.469C459.969 139.369 459.669 139.269 459.469 139.269C459.269 139.269 459.069 139.169 458.969 139.169C458.669 139.069 458.469 139.069 458.169 139.069C458.069 139.069 457.969 138.969 457.769 138.969L117.969 92.069V44.669C117.969 44.169 117.969 43.669 117.869 43.269C117.869 43.169 117.869 43.069 117.769 42.869C117.769 42.569 117.669 42.269 117.669 41.969C117.569 41.669 117.569 41.469 117.469 41.169C117.469 40.969 117.369 40.869 117.369 40.669C117.269 40.369 117.169 40.069 117.069 39.769C117.069 39.669 116.969 39.469 116.969 39.369C116.869 39.069 116.769 38.869 116.569 38.569C116.469 38.469 116.469 38.269 116.369 38.169C116.269 37.969 116.169 37.769 115.969 37.569C115.869 37.369 115.769 37.269 115.669 37.069C115.569 36.869 115.469 36.769 115.369 36.569C115.269 36.369 115.069 36.169 114.969 35.969C114.869 35.869 114.769 35.769 114.669 35.669C114.469 35.469 114.269 35.269 114.069 35.069C113.969 34.969 113.869 34.869 113.769 34.769C113.569 34.569 113.369 34.369 113.069 34.169C112.969 34.069 112.769 33.969 112.669 33.869C112.469 33.669 112.269 33.569 112.069 33.369C111.769 33.169 111.469 32.969 111.269 32.869C111.169 32.769 111.069 32.769 110.969 32.669C110.569 32.469 110.069 32.269 109.669 32.069L35.969 1.06899C29.069 -1.83101 21.169 1.36899 18.269 8.26899C15.369 15.169 18.569 23.069 25.469 25.969L90.869 53.569V114.769V124.469V198.869V265.369V349.369C90.869 377.369 111.869 400.569 138.969 404.069C134.069 412.269 131.169 421.869 131.169 432.069C131.169 462.169 155.669 486.569 185.669 486.569C215.669 486.569 240.169 462.069 240.169 432.069C240.169 422.069 237.469 412.569 232.669 404.569H354.069C349.269 412.669 346.569 422.069 346.569 432.069C346.569 462.169 371.069 486.569 401.069 486.569C431.069 486.569 455.569 462.069 455.569 432.069C455.569 402.069 431.069 377.569 401.069 377.569H146.069C130.469 377.569 117.869 364.869 117.869 349.369V312.769C126.069 317.569 135.769 320.369 146.069 320.369ZM213.269 431.969C213.269 447.169 200.869 459.469 185.769 459.469C170.669 459.469 158.269 447.069 158.269 431.969C158.269 416.869 170.669 404.469 185.769 404.469C200.869 404.469 213.269 416.769 213.269 431.969ZM428.669 431.969C428.669 447.169 416.269 459.469 401.169 459.469C386.069 459.469 373.669 447.069 373.669 431.969C373.669 416.869 386.069 404.469 401.169 404.469C416.269 404.469 428.669 416.769 428.669 431.969ZM414.169 293.369H146.069C130.469 293.369 117.869 280.669 117.869 265.169V198.669V124.269V119.269L442.369 163.969V265.069C442.369 280.769 429.669 293.369 414.169 293.369Z" fill="white"/>
</g>
<defs>
<clipPath id="clip0">
<rect width="486.569" height="486.569" fill="white"/>
</clipPath>
</defs>
</svg>
