<svg width="54" height="54" viewBox="0 0 54 54" fill="none" xmlns="http://www.w3.org/2000/svg">
<g clip-path="url(#clip0)">
<path d="M0.759375 4.50492C-0.253125 3.49242 -0.253125 1.80728 0.759375 0.759375C1.80728 -0.253125 3.45702 -0.253125 4.50492 0.759375L26.9805 23.2727L49.4939 0.759375C50.5064 -0.253125 52.1915 -0.253125 53.2017 0.759375C54.2496 1.80728 54.2496 3.49478 53.2017 4.50492L30.7261 26.9829L53.2017 49.4963C54.2496 50.5088 54.2496 52.1939 53.2017 53.2418C52.1892 54.2543 50.504 54.2543 49.4939 53.2418L26.9805 30.7284L4.50492 53.2418C3.45702 54.2543 1.80728 54.2543 0.759375 53.2418C-0.253125 52.1939 -0.253125 50.5064 0.759375 49.4963L23.235 26.9829L0.759375 4.50492Z" fill="white"/>
</g>
<defs>
<clipPath id="clip0">
<rect width="54" height="54" fill="white"/>
</clipPath>
</defs>
</svg>
